<?xml version="1.0" encoding="UTF-8"?>
<!DOCTYPE svg PUBLIC "-//W3C//DTD SVG 1.1//EN" "http://www.w3.org/Graphics/SVG/1.1/DTD/svg11.dtd">
<!-- Creator: CorelDRAW 2021.5 -->
<svg xmlns="http://www.w3.org/2000/svg" xml:space="preserve" width="1.86666in" height="1.79649in" version="1.1" style="shape-rendering:geometricPrecision; text-rendering:geometricPrecision; image-rendering:optimizeQuality; fill-rule:evenodd; clip-rule:evenodd"
viewBox="0 0 1866.68 1796.5"
 xmlns:xlink="http://www.w3.org/1999/xlink"
 xmlns:xodm="http://www.corel.com/coreldraw/odm/2003">
 <defs>
  <style type="text/css">
   <![CDATA[
    .fil0 {fill:black}
   ]]>
  </style>
 </defs>
 <g id="Layer_x0020_1">
  <metadata id="CorelCorpID_0Corel-Layer"/>
  <path class="fil0" d="M144.3 567.13l36.4 -72.95c16.62,-35.89 108.67,-163.17 140.89,-179.35 7.23,-16.25 28.74,-28.52 35.92,-35.08 8.55,-7.82 9.67,-9.99 19.11,-17.43 50.07,-39.46 47.92,-37 105.42,-71.98 129.15,-78.58 301.68,-115.1 457.22,-102.96 53.34,4.17 201.63,26.26 229.98,51.41 11.54,2.44 10.37,0.83 17.9,7.96 31.72,10.2 79.13,33.35 100.41,0.31 11.78,-18.27 8.41,-36.87 -3.19,-51.34 -25.7,-32.08 -220.88,-78.74 -266.38,-85.5 -237.67,-35.26 -472.37,21.24 -660.39,160.61 -164.88,122.23 -284.86,301.49 -336.31,501.48 -43.15,167.74 -17.36,315.13 47.01,468.78 72.2,172.34 245.76,340.85 418.33,419.67 143.46,65.52 305.68,102.09 468.57,78.27 42.22,-6.18 78.82,-12.14 119.45,-21.8 32.69,-7.76 83.32,-29.9 108.01,-33.51 15.55,46.56 76.84,149.05 102.82,175.1 52.37,52.5 155.05,48.34 205.38,-1.31 63.84,-63 41.58,-129.95 -2.02,-198.16l-118.02 -164.8c-17.64,1.92 -67.59,41.52 -97.45,58.25 -272.8,152.88 -605.54,146.11 -856.61,-25.41 -40.19,-27.45 -92.94,-70.24 -125.32,-106.63 -203.21,-228.33 -269.43,-444.79 -147.15,-753.62z"/>
  <path class="fil0" d="M970.56 1168.33c6.28,-10.09 12.41,-11.64 21.96,-17.95 8.56,-5.66 14.19,-10.82 23.01,-16.82l15.8 -7.41c32.76,-28.29 86.45,-72.3 110.66,-110.94 24.11,16.95 44.67,29.84 67.7,47.28 43.26,32.78 93.69,64.73 111.34,120.67 10.63,33.71 2.05,80.02 22.83,93.41 73.77,47.56 126.54,-125.98 -56.5,-263.01l-136.26 -95.93c-46.32,-27.73 -48.28,25.43 -119.97,93.64 -25.54,24.31 -24.24,30.28 -61.47,54.44 -72.09,46.8 -165.91,89.55 -258.72,88.87l-50.11 -2.76c-106.58,-6.24 -203.07,-65.9 -275.51,-124.52 -17.04,-13.78 -26.52,-22.51 -41.89,-37.69 -24.68,-24.4 -59.16,-52.09 -78.4,-84.7l27.41 -34.22c20.98,-21.06 12.58,-15.48 29.49,-35.75 8.17,-9.79 12.47,-14.5 19.56,-23.88 25.86,-34.22 52.35,-61.78 80.61,-89.75 59.59,-58.97 121.52,-94.69 235.92,-108.02 122.11,-14.23 265.16,41.6 345.09,122.81 8.33,8.47 12.64,14.11 21.02,22.37 32.37,31.93 75.74,88.13 81.99,93.3 18.01,-4.78 33.95,-27.34 47.67,-40.53 16.17,-15.54 25.77,-31.45 40.97,-46.31l43.54 -43.25c79.4,-86.91 154.4,-138.23 171.01,-268.53 10.4,-81.63 -67.17,-78.93 -80.28,-35.9 -6.3,20.67 -7.25,49.77 -14.19,72.66 -6.58,21.72 -21.02,42.5 -32.32,58.35 -22.06,30.95 -57.36,65.91 -82.22,91.92 -33.2,34.75 -55.62,56.05 -85.46,90.63l-44.13 -44.23c-15.07,-17.79 -27.35,-26.44 -43.14,-43.52 -13.64,-4.44 -43.07,-24.39 -50.89,-37.19 -14.85,-5.22 -27.29,-14.69 -42.76,-22.11 -16.34,-7.85 -27.39,-13.59 -44.47,-20.78 -31.91,-13.43 -66.85,-23.32 -106.54,-28.19 3.71,-26.16 26.65,-83.87 39.8,-101.94 36.54,-50.21 27.89,-35.9 98.64,-37.32 1.12,47.23 -9.8,103.52 43.35,104.52 52.76,0.99 44.93,-56.82 43.55,-103.23 34.63,0.67 120.87,6.5 136.09,-15.81 10.99,-16.12 11.73,-40.6 0.01,-58.02 -15.41,-22.89 -31.86,-14.18 -62.74,-16.45 -15.62,6.06 -57.33,7.99 -75.44,1.56l-0.74 -75.57c-4.44,-32 -44.64,-54.37 -72.02,-29.78 -21.96,19.72 -11.58,74.81 -11.59,107.73 -94.61,-6.61 -113.76,1.87 -156.86,57.48 -18.76,24.2 -26.06,41.54 -37.22,71.42 -7.22,19.31 -26.31,63.81 -27.56,80.94 -67.07,0.25 -133.96,19.17 -188.71,40.17 -21.82,8.37 -54.67,28.17 -74.86,40.95 -14,8.86 -22.05,15.18 -33.54,24.62l-61.81 54.24c-8.84,10.09 -18.03,19.47 -27.49,30.43l-103.27 129.1c-67.81,79.1 -78.18,43.35 12.38,146.71 25.91,29.56 48.13,49.73 76.4,76.14 153.55,143.42 344.84,223.03 561.14,151.62 41.48,-13.69 99.61,-43.48 110.13,-46z"/>
  <path class="fil0" d="M1689.83 807.72c20.26,-1.09 56.66,15.49 70.5,26.84 21.78,17.86 22.63,56.26 1.26,76.66 -24.56,23.45 -61.08,10.39 -76.46,-12.32 -19.32,-28.53 -11.03,-51.33 -7.84,-88.27l12.54 -2.92zm-97.39 -87.97c-92.74,-2.59 -251.35,62.96 -251.33,138.02 0,33.21 19.03,45.82 51.57,44.58 52.27,-1.97 43.26,-34.35 51.25,-47.72 16.71,-27.98 103.74,-48.92 146.19,-51.51l-1.7 58.28c0,141.93 170,192.04 247.51,94.93 79.8,-99.97 -3.77,-232.15 -157.86,-232.56 9.98,-150.19 -40,-284.87 -118.22,-399.52 -32.43,-47.53 -49.27,-83.14 -90.89,-76.37 -21.22,3.46 -36.61,23.6 -31.98,46.58 2.94,14.58 76.89,95.45 100.84,149.68 47.04,106.49 50.09,148.28 54.61,275.6z"/>
  <path class="fil0" d="M321.6 314.83c2.46,9.43 -33.43,49 -42.5,60.18 -15.14,18.67 -30.06,42.24 -44.9,63.67l-67.34 124.45c-0.77,1.96 -3.56,8.89 -4.39,10.57 -0.53,1.04 -2.31,4.2 -2.81,5.09l-3.22 4.93c-4.62,14.15 -10.23,25.19 -15.19,41.57 -11.85,39.12 -44.63,111.99 -5.06,129.31 14.58,6.39 39.39,5.9 51.26,-3.46 13.36,-10.52 37.1,-95.11 49,-125.04 54.24,-136.47 142.88,-250.84 255.57,-324.15 181.14,-117.83 352.57,-130.77 563.34,-132.44 68.6,-0.54 76.63,-10.32 102.19,-11.06 12.98,-16.41 2.86,1.85 11.71,-19.65 -28.35,-25.15 -176.65,-47.24 -229.98,-51.41 -155.53,-12.14 -328.07,24.38 -457.22,102.96 -57.5,34.99 -55.35,32.52 -105.42,71.98 -9.44,7.44 -10.56,9.61 -19.11,17.43 -7.18,6.55 -28.69,18.83 -35.92,35.08z"/>
  <path class="fil0" d="M259.49 1192.33c13.59,28.67 138.38,141.73 184.14,172.03 19.17,12.69 56.04,37.13 76.15,45.14 21.7,-4.96 27.47,-13.74 30.42,15.01 41.11,36.65 187.25,61 248.25,66.93 54.7,5.31 102.84,0.5 155.4,-2.21 109.61,-5.66 93.48,-13.33 99.47,-65.63l-8.32 1.35c-19.69,-5.44 -4.37,1.75 -15.06,-14.28l-13.41 7.21c-21.28,10 -91.6,15.46 -117.14,15.83 -49.95,0.72 -137.66,0.69 -184.1,-9.32l-91.61 -29.42c-28.68,-13.81 -23.58,-6.89 -42.45,-15.72l-15.45 -6.85c-6.85,-2.38 -7.13,-1.24 -13.69,-4.72 -21.11,-11.21 3.54,1.86 -7.08,-8.08 -9.41,-8.82 -1.76,5.03 -3.63,-2.76 -1.12,-4.67 -5.9,2.68 1.85,-3.84 6.44,-5.43 0.21,-1.32 8.71,-4.63l-47.49 -26.68c-47.65,-28.91 -71.17,-47.84 -108.97,-90.51 -7.28,-8.23 -11.52,-15.58 -18.5,-18.03 -0.38,0.26 -0.55,1.13 -0.66,1.21l-17.01 -9.2c-7.54,0.74 -4.02,13.34 -7.11,2.03 -0.15,-0.53 -1.13,0.14 -1.69,0.07 -1.47,-2.83 -0.95,0.15 -3.63,-8.49 -4.96,-16.02 -2.61,-11.35 0.09,-16.82 -15.15,-2.14 -24.28,-24.09 -34.23,-34.9 -0.73,-0.8 -3.05,-3.02 -3.78,-3.84l-3.5 -4.04c-0.66,-0.85 -2.39,-3.47 -2.99,-4.33 -0.43,-0.61 -0.92,-1.58 -1.33,-2.18 -14.2,-20.38 -3.72,-2.55 -13.95,-14.02 -7.47,-8.38 -2.46,-3.19 -5.97,-9.93 -3.54,-6.79 -24.08,-37.69 -35.35,-39.22 -12.88,-1.75 -22.74,4.33 -29.06,12.43 -4.2,5.39 -8.36,16.27 -7.51,25.3l33.2 52.47c8.67,13.02 5.12,10.29 18.42,17.72l-1.47 14.93z"/>
  <path class="fil0" d="M777.59 862.09c33.5,-4.14 92.5,-14.08 112.03,10.19 -2.48,15.45 -5.33,13.96 -19.74,20.99 -38.37,18.72 -51.87,22.41 -93.73,7.51l1.44 -38.7zm-109.82 269.47l0.48 13.48c22.87,0.59 22.54,3.02 42.74,-4.4 10.96,-5.88 34.78,-61.94 38.77,-73.82 9.01,-26.85 18.82,-65.56 21.33,-95.31 18.02,-1.51 40.82,7.69 66.56,5.92 21.91,-1.51 42.18,-7.22 60.48,-15.26 82.49,-36.22 91.08,-152.19 -4.66,-174.24 -64.24,-14.8 -109.18,11.53 -134.58,15.1 -10.59,-75.49 -64.62,-194.65 -105.87,-151.6 -30.37,31.7 75.21,73.24 54.87,304.47 -9.59,108.95 -37.43,145.06 -40.11,175.65z"/>
  <path class="fil0" d="M541.91 711.95c-16.79,2.8 -32.02,6.79 -32.76,26.5 -0.94,25.22 62.09,52.61 54.6,123.11 -3.95,37.13 -27.61,55.52 -43.32,74.22 -27.69,32.95 -5.28,60.42 40.63,51.65 56.97,-10.88 90.78,-96.46 86.37,-151.56 -2.86,-35.77 -15.06,-62.16 -31.52,-86.06 -17.3,-25.1 -29.06,-45.33 -74,-37.86z"/>
  <path class="fil0" d="M976.69 605.88c7.83,12.8 37.26,32.74 50.89,37.19 89.58,-121.38 121.76,-64 155.73,-95.72 21.71,-20.27 10.43,-46.2 -9.7,-57.91 -46.05,-26.79 -100.36,1.76 -127.1,25.9 -22.82,20.61 -39.64,44.78 -59.45,67.57 -14.96,17.21 -7.01,8.06 -10.38,22.98z"/>
  <path class="fil0" d="M1015.54 1133.56c1.14,13.48 -4.63,14.41 -18.22,24.52 -15.19,11.3 -8.54,2.63 -17.76,12.42 2.5,27.6 7.96,-2.93 17.76,32.37 9.36,33.47 163.25,107 195.54,42.29 30.26,-60.65 -53.22,-46.21 -82.32,-54.46 -23.48,-6.65 -72.13,-52.71 -79.2,-64.55l-15.8 7.41z"/>
  <path class="fil0" d="M428.67 802.83c-82.67,20.91 -61.77,126.01 32.04,114.15 70.91,-8.96 69.67,-139.89 -32.04,-114.15z"/>
  <path class="fil0" d="M1442.74 1294.85c-69.3,22.3 -45.29,127.36 28.38,109.86 25.84,-6.14 50.42,-35.76 40.82,-71.02 -7.26,-26.66 -36.17,-49.46 -69.19,-38.83z"/>
  <path class="fil0" d="M1551.26 1059.22c-64.47,16.45 -45.25,128.35 32.67,106.6 60.09,-16.77 44.41,-126.28 -32.67,-106.6z"/>
  <path class="fil0" d="M1045.02 1424.94l-0.15 -12.88c-3.77,-2.65 -1.02,0.46 -6.27,-4.74 -4.1,-4.07 -2.39,-2.99 -5.32,-7.36 -73.72,13.37 -182.36,22.22 -259.04,11.43 -69.18,-9.74 -107.87,-20.09 -169.73,-41.08 -20.57,-6.98 -33.22,-14.82 -52.55,-21.95 -8.5,3.31 -2.27,-0.8 -8.71,4.63 -7.75,6.52 -2.97,-0.82 -1.85,3.84 1.87,7.79 -5.78,-6.05 3.63,2.76 10.62,9.94 -14.03,-3.13 7.08,8.08 6.56,3.48 6.83,2.34 13.69,4.72l15.45 6.85c18.87,8.83 13.78,1.91 42.45,15.72l91.61 29.42c46.45,10 134.15,10.04 184.1,9.32 25.54,-0.37 95.86,-5.84 117.14,-15.83l13.41 -7.21c10.68,16.03 -4.64,8.84 15.06,14.28z"/>
  <path class="fil0" d="M144.3 567.13l13.7 -0.64 -1.57 17.21 3.22 -4.93c0.51,-0.89 2.29,-4.05 2.81,-5.09 0.83,-1.68 3.62,-8.61 4.39,-10.57l67.34 -124.45c14.83,-21.43 29.76,-44.99 44.9,-63.67 9.07,-11.19 44.96,-50.75 42.5,-60.18 -32.22,16.19 -124.28,143.47 -140.89,179.35l-36.4 72.95z"/>
  <path class="fil0" d="M777.59 862.09l-1.44 38.7c41.86,14.9 55.36,11.21 93.73,-7.51 14.41,-7.03 17.26,-5.54 19.74,-20.99 -19.53,-24.28 -78.53,-14.33 -112.03,-10.19z"/>
  <path class="fil0" d="M259.49 1192.33l1.47 -14.93c-13.3,-7.43 -9.75,-4.7 -18.42,-17.72l-33.2 -52.47c-0.85,-9.04 3.31,-19.92 7.51,-25.3 6.31,-8.09 16.18,-14.18 29.06,-12.43 11.27,1.54 31.82,32.43 35.35,39.22 3.52,6.74 -1.5,1.55 5.97,9.93 10.23,11.47 -0.25,-6.36 13.95,14.02 0.41,0.6 0.91,1.57 1.33,2.18 0.6,0.86 2.33,3.48 2.99,4.33l3.5 4.04c0.73,0.82 3.04,3.04 3.78,3.84 9.95,10.81 19.07,32.76 34.23,34.9 -1.99,-16.94 -56.62,-81.56 -70.62,-99.89 -39.02,-51.1 -92.15,-5.5 -70.11,44.03 8.08,18.17 22.86,35.66 36.4,50.99l16.82 15.26z"/>
  <path class="fil0" d="M970.56 1168.33l-3.36 -0.19c2.72,19.56 16,27.08 30.11,34.72 -9.8,-35.3 -15.26,-4.77 -17.76,-32.37 9.23,-9.78 2.58,-1.12 17.76,-12.42 13.59,-10.11 19.36,-11.04 18.22,-24.52 -8.83,6 -14.45,11.16 -23.01,16.82 -9.55,6.32 -15.68,7.86 -21.96,17.95z"/>
  <path class="fil0" d="M1081.62 306.57l-72.86 0.9c0.88,-21.85 3.5,-57.82 -3.32,-74.91l0.74 75.57c18.11,6.43 59.82,4.49 75.44,-1.56z"/>
  <path class="fil0" d="M377.01 1213.14c-4.94,-10.15 -5.94,-11.5 -13.11,-19.47 -0.73,-0.81 -5.83,-6.65 -6.87,-7.44 -8.33,-6.42 2.16,-2.23 -10.04,-4.28 -2.7,5.46 -5.05,0.8 -0.09,16.82 2.68,8.64 2.16,5.66 3.63,8.49 0.56,0.07 1.54,-0.59 1.69,-0.07 3.09,11.31 -0.42,-1.29 7.11,-2.03l17.01 9.2c0.11,-0.07 0.28,-0.95 0.66,-1.21z"/>
  <path class="fil0" d="M660.82 1151.82l50.11 2.76c-2.5,-1.87 -2.19,-4.51 -4.34,-7.15 8.43,0 0.02,1.14 4.38,-6.79 -20.2,7.41 -19.87,4.99 -42.74,4.4l-0.48 -13.48c-8.33,5.95 -3.08,-3.93 -6.81,6.6 -2.91,8.21 -0.89,6.22 -0.13,13.66z"/>
  <path class="fil0" d="M519.79 1409.5c9.42,9.67 15.47,13 30.42,15.01 -2.95,-28.76 -8.72,-19.98 -30.42,-15.01z"/>
  <path class="fil0" d="M1157.54 158.43c13.25,0.24 16.5,-6.57 29.61,-11.68 -7.54,-7.14 -6.37,-5.52 -17.9,-7.96 -8.85,21.5 1.27,3.24 -11.71,19.65z"/>
  <path class="fil0" d="M1045.02 1424.94l8.32 -1.35c-2.94,-11.51 -2.54,-13.17 -6.83,-20.84l-13.21 -2.79c2.93,4.37 1.22,3.29 5.32,7.36 5.25,5.2 2.5,2.09 6.27,4.74l0.15 12.88z"/>
 </g>
</svg>
